<svg xmlns="http://www.w3.org/2000/svg" viewBox="0 0 128 128">
  <path fill="#1572B6" d="m18.814 114.123-8.58-96.032h107.532l-8.58 96.032-38.653 10.739z"/>
  <path fill="#33A9DC" d="m64.001 117.062 31.22-8.652 7.348-82.344H64.001z"/>
  <path fill="#fff" d="M64.001 51.429h18.302l1.264-14.163H64.001V23.435h34.682l-.332 3.711-3.4 38.114H64.001z"/>
  <path fill="#EBEBEB" d="m64.083 87.349-.061-.018-15.403-4.159-.985-11.031H33.752l1.937 21.717 28.331 7.863.063-.018z"/>
  <path fill="#fff" d="m81.127 64.675-1.666 18.522-15.426 4.164v14.39l28.354-7.858.208-2.337 2.406-26.881z"/>
  <path fill="#EBEBEB" d="M64.048 23.435v13.831H30.64l-.277-3.108-.63-7.012-.331-3.711zm-.047 27.996v13.831H48.792l-.277-3.108-.631-7.012-.33-3.711z"/>
</svg>