<svg xmlns="http://www.w3.org/2000/svg" viewBox="0 0 24 24" fill="none">
  <path fill="#339933" d="M12 1.85c-.27 0-.55.07-.78.2l-7.44 4.3c-.48.28-.78.8-.78 1.36v8.58c0 .56.3 1.08.78 1.36l1.95 1.12c.95.46 1.27.46 1.71.46.85 0 1.31-.52 1.31-1.36V9.47c0-.13-.11-.24-.24-.24H7.5c-.13 0-.24.11-.24.24v7.4c0 .45-.49.62-.9.35l-1.91-1.1c-.06-.03-.09-.09-.09-.15V7.41c0-.06.03-.12.09-.15l7.44-4.3c.06-.03.12-.03.18 0l7.44 4.3c.06.03.09.09.09.15v8.58c0 .06-.03.12-.09.15l-7.44 4.3c-.06.03-.12.03-.18 0l-1.88-1.12c-.05-.03-.11-.03-.16 0-.32.18-.38.21-.7.33-.08.03-.2.09.01.21l2.44 1.45c.24.13.5.2.78.2s.54-.07.78-.2l7.44-4.3c.48-.28.78-.8.78-1.36V7.41c0-.56-.3-1.08-.78-1.36l-7.44-4.3c-.23-.13-.51-.2-.78-.2z"/>
</svg>