<svg xmlns="http://www.w3.org/2000/svg" viewBox="0 0 24 24" fill="none">
  <circle cx="12" cy="12" r="2" fill="#61DAFB"/>
  <path d="M12,8c-2.168,0-4.911,2.015-6.962,4.853C3.056,15.689,2.15,18.5,3.527,19.877c1.377,1.377,4.188,0.471,7.024-1.511C12.985,16.911,15,14.168,15,12s-2.015-4.911-4.853-6.962C7.311,3.056,4.5,2.15,3.123,3.527C1.746,4.904,2.652,7.715,4.634,10.551" stroke="#61DAFB" stroke-width="1" fill="none"/>
  <path d="M12,16c2.168,0,4.911-2.015,6.962-4.853c1.982-2.836,2.888-5.647,1.511-7.024C19.096,2.746,16.285,3.652,13.449,5.634C11.015,7.089,9,9.832,9,12s2.015,4.911,4.853,6.962c2.836,1.982,5.647,2.888,7.024,1.511c1.377-1.377,0.471-4.188-1.511-7.024" stroke="#61DAFB" stroke-width="1" fill="none"/>
</svg>